<svg xmlns="http://www.w3.org/2000/svg" viewBox="0 0 256 256" role="img" aria-labelledby="title desc">
  <title id="title">Tech repairer avatar</title>
  <desc id="desc">A refined abstract portrait with repair sparks and electronic leaf motifs.</desc>
  <defs>
    <linearGradient id="bg" x1="32" y1="23" x2="224" y2="230" gradientUnits="userSpaceOnUse">
      <stop offset="0" stop-color="#e4f0ff"/>
      <stop offset="0.5" stop-color="#83c8d8"/>
      <stop offset="1" stop-color="#2b6671"/>
    </linearGradient>
    <linearGradient id="hoodie" x1="58" y1="164" x2="199" y2="235" gradientUnits="userSpaceOnUse">
      <stop offset="0" stop-color="#246c78"/>
      <stop offset="1" stop-color="#27375f"/>
    </linearGradient>
    <filter id="softShadow" x="-20%" y="-20%" width="140%" height="140%">
      <feDropShadow dx="0" dy="8" stdDeviation="9" flood-color="#244a56" flood-opacity="0.25"/>
    </filter>
  </defs>
  <circle cx="128" cy="128" r="120" fill="url(#bg)"/>
  <path fill="#ffffff" opacity="0.41" d="M32 148c30-21 61-21 91-3 37 22 66 16 100-12-3 64-45 111-95 111-49 0-89-39-96-96Z"/>
  <g filter="url(#softShadow)">
    <path fill="url(#hoodie)" d="M56 225c9-42 36-64 72-64s63 22 72 64c-20 13-45 19-72 19s-52-6-72-19Z"/>
    <circle cx="128" cy="107" r="50" fill="#efc2a1"/>
    <path fill="#243849" d="M78 104c4-37 28-59 58-57 27 1 44 20 45 51-13-11-29-18-49-18-23 0-40 9-54 24Z"/>
    <path fill="#e4ac89" d="M94 121c7 21 19 33 34 33 16 0 28-12 35-33-12 8-24 12-35 12s-22-4-34-12Z" opacity="0.55"/>
    <circle cx="111" cy="111" r="5" fill="#223242"/>
    <circle cx="146" cy="111" r="5" fill="#223242"/>
    <path fill="none" stroke="#965c51" stroke-linecap="round" stroke-width="5" d="M116 133c8 6 17 6 25 0"/>
  </g>
  <g fill="none" stroke="#f6fff8" stroke-linecap="round" stroke-linejoin="round" stroke-width="6">
    <path d="M52 86h45"/>
    <path d="M67 70l30 16-30 16"/>
    <path d="M185 66l20 20-20 20"/>
    <path d="M205 66l-20 20 20 20"/>
  </g>
  <g transform="translate(91 177)">
    <rect width="74" height="39" rx="9" fill="#f6fff8"/>
    <circle cx="19" cy="20" r="6" fill="#3aa875"/>
    <path fill="none" stroke="#34747a" stroke-linecap="round" stroke-width="5" d="M35 14h24M35 25h16"/>
  </g>
  <path fill="#42b981" d="M129 42c13 5 17 16 17 23-15-2-23-10-17-23Z"/>
</svg>
